<svg width="400" height="500" viewBox="0 0 400 500" xmlns="http://www.w3.org/2000/svg">
  <!-- Background -->
  <rect width="400" height="500" fill="#ffffff" stroke="#e9ecef" stroke-width="2" rx="12"/>
  
  <!-- Header -->
  <rect x="0" y="0" width="400" height="60" fill="#007bff" rx="12 12 0 0"/>
  <text x="20" y="35" fill="white" font-family="Arial, sans-serif" font-size="16" font-weight="bold">Task Completion - Beta Preview</text>
  <text x="350" y="35" fill="white" font-family="Arial, sans-serif" font-size="14">✕</text>
  
  <!-- Progress Bar -->
  <rect x="20" y="80" width="360" height="8" fill="#e9ecef" rx="4"/>
  <rect x="20" y="80" width="288" height="8" fill="#28a745" rx="4"/>
  <text x="20" y="110" fill="#38424d" font-family="Arial, sans-serif" font-size="12">Step 3 of 4 - 80% Complete</text>
  
  <!-- Task Title -->
  <text x="20" y="140" fill="#38424d" font-family="Arial, sans-serif" font-size="18" font-weight="bold">Survey: Product Feedback</text>
  <text x="20" y="160" fill="#666" font-family="Arial, sans-serif" font-size="14">Estimated time: 5 minutes • Reward: $2.50</text>
  
  <!-- Task Content -->
  <rect x="20" y="180" width="360" height="200" fill="#f8f9fa" stroke="#e9ecef" stroke-width="1" rx="8"/>
  <text x="30" y="205" fill="#38424d" font-family="Arial, sans-serif" font-size="14" font-weight="bold">Question 3: How would you rate this product?</text>
  
  <!-- Rating Options -->
  <rect x="30" y="220" width="340" height="30" fill="#ffffff" stroke="#e9ecef" stroke-width="1" rx="4"/>
  <circle cx="45" cy="235" r="6" fill="#007bff"/>
  <text x="60" y="240" fill="#38424d" font-family="Arial, sans-serif" font-size="12">Excellent (5 stars)</text>
  
  <rect x="30" y="260" width="340" height="30" fill="#ffffff" stroke="#e9ecef" stroke-width="1" rx="4"/>
  <circle cx="45" cy="275" r="6" fill="none" stroke="#ccc" stroke-width="2"/>
  <text x="60" y="280" fill="#38424d" font-family="Arial, sans-serif" font-size="12">Good (4 stars)</text>
  
  <rect x="30" y="300" width="340" height="30" fill="#ffffff" stroke="#e9ecef" stroke-width="1" rx="4"/>
  <circle cx="45" cy="315" r="6" fill="none" stroke="#ccc" stroke-width="2"/>
  <text x="60" y="320" fill="#38424d" font-family="Arial, sans-serif" font-size="12">Average (3 stars)</text>
  
  <rect x="30" y="340" width="340" height="30" fill="#ffffff" stroke="#e9ecef" stroke-width="1" rx="4"/>
  <circle cx="45" cy="355" r="6" fill="none" stroke="#ccc" stroke-width="2"/>
  <text x="60" y="360" fill="#38424d" font-family="Arial, sans-serif" font-size="12">Poor (2 stars or below)</text>
  
  <!-- Instructions -->
  <rect x="20" y="400" width="360" height="60" fill="#e3f2fd" stroke="#2196f3" stroke-width="1" rx="8"/>
  <text x="30" y="420" fill="#1976d2" font-family="Arial, sans-serif" font-size="12" font-weight="bold">💡 Tip:</text>
  <text x="30" y="435" fill="#1976d2" font-family="Arial, sans-serif" font-size="11">Please provide honest feedback.</text>
  <text x="30" y="450" fill="#1976d2" font-family="Arial, sans-serif" font-size="11">Quality responses earn bonus rewards!</text>
  
  <!-- Action Buttons -->
  <rect x="20" y="480" width="80" height="35" fill="#6c757d" rx="6"/>
  <text x="60" y="502" fill="white" font-family="Arial, sans-serif" font-size="12" font-weight="bold" text-anchor="middle">Previous</text>
  
  <rect x="300" y="480" width="80" height="35" fill="#28a745" rx="6"/>
  <text x="340" y="502" fill="white" font-family="Arial, sans-serif" font-size="12" font-weight="bold" text-anchor="middle">Next</text>
  
  <!-- Earnings Indicator -->
  <rect x="120" y="480" width="160" height="35" fill="#fff3cd" stroke="#ffc107" stroke-width="1" rx="6"/>
  <text x="200" y="502" fill="#856404" font-family="Arial, sans-serif" font-size="12" font-weight="bold" text-anchor="middle">Earning: $2.50</text>
  
  <!-- Beta Preview Watermark -->
  <text x="200" y="25" fill="rgba(255,255,255,0.7)" font-family="Arial, sans-serif" font-size="10" text-anchor="middle">SAMPLE TASK INTERFACE</text>
</svg>